<svg xmlns="http://www.w3.org/2000/svg" width="144" height="217" viewBox="0 0 144 217"><style>.a{stroke-width:4;stroke:#000;}.b{fill:#ffe6d5;}.c{fill:#fff;}.d{stroke:#000;}.e{stroke-width:2;}.f{stroke-width:4;}.g{fill:#fff;stroke-width:0.9;stroke:#000;}</style><g transform="translate(0 -80)"><g transform="matrix(0.26458333 0 0 0.26458333 -6.0122254 84.730906)" class="a"><g fill="#c87137"><path d="m480.8 743.4c110.5-65 80.7 4.8 80.7 29.3 0 24.5-37.7 23.5-93.3 23.5-55.6 0-108 1-108-23.5 0-24.5 105.8-72.2 120.6-29.3z"/><path d="m235.1 743.3c-110.4-65-80.7 4.8-80.7 29.3 0 24.5 37.7 23.5 93.3 23.5 55.6 0 108 1 108-23.5 0-24.5-105.8-72.2-120.6-29.3z"/></g><path d="m459.5 547.7c28.4 74.2 23.8 114 33.2 177.5-52.2 23.5-98.2 33.9-140 33.8l-0.6-206 0.6 206.1c-50.1 7.2-92.2-5-124.9-32 9.9-58.9 7.4-105 33.2-179.3h198.6z" fill="#520"/><path d="m100.6 396.8c23.3-0.3 42.6 17.2 39.6 34.9-3.3 19.5-10 31.4-30.2 41.3-29.8 14.7-70.6 1.6-49-41.3 8.8-17.6 17.7-34.9 39.6-34.9z" class="b"/><g class="c"><path d="m269 313.1 31.6 35.6c-54.4 38.1-95.2 83.1-159.6 104.7-1.2-15.1 0.4-38.6-14.4-48.9 61.1 2.6 96.1-57.9 142.3-91.4z"/><path d="m412.7 273.4c88.4 3.7 147.1 206.8 109.9 315.4-52.4 15.7-104.9 26.8-157.3 32.7-7.5-6.6-14.9-12.2-23.7-24.6l9.1-251.3-9.2 250.4c-5.3 9.7-11.6 18.2-19.7 24.3-50.3-6.9-91.4-17.1-120.5-31.4-24.3-97.4 24.3-302.8 107.8-308l103.6-7.4z"/></g></g><g transform="matrix(0.26458333 0 0 0.26458333 -6.0122254 84.730906)" style="fill:#fff;stroke-width:4;stroke:#000"><path d="m421.4 274.7c7.8 3.5 21.9 4.9 27.5 12.1-4.1 2.3-14.4 4-18.5 6.9-1.2 0.9-8.2-5.4-9.4-4.5-1.2 0.9 2.4 9 1.3 9.9-23.1 18.5-42.4 38.5-66.2 57.6l-5.2-12.1 70.5-69.8z"/><path d="m288.6 286 61.8 59.3-4.1 12.6c-19.4-17.9-38.5-26-57.2-39.6-1.5-1.1 2-9.4 0.4-10.5-1.4-1.1-8.6 6.2-10 5.1-3.7-2.9-9-5-12.9-8.4 7.2-4.8 12.9-17 22-18.5z"/></g><g transform="matrix(0.26458333 0 0 0.26458333 -6.0122254 84.730906)" class="d"><path d="m468.3 480.9c31.5 9.4 21.9 18.7 16.7 31.5-5.3 12.8-21.3 19.3-35.7 14.7-14.5-4.6-21.9-18.7-16.7-31.5 5.3-12.7 4.3-24.1 35.7-14.7z" style="fill:#ffe6d5;stroke-width:4"/><path d="m490 503.4c9.4 17.8 9.4 35.7 0 53.5-22.1 11.6-42.3 11.6-60.7 0-13.9-20.1-6.1-36.6 0-53.5 19.4 4.9 39.4 6.6 60.7 0z" style="fill:#fff;stroke-width:2"/><g class="e"><rect transform="matrix(-0.99994 0.011243 0.0055972 0.99998 0 0)" x="-306.2" y="331.4" width="53.3" height="76.6" rx="10.3" ry="10.3" fill="#ccc"/><path d="m296.8 336.7-30.4 0.3c-2.2 0-4 1.8-4 4.1l0 5.6c0 2.2 1.8 4 4.1 4l30.4-0.3c2.2 0 4-1.8 4-4.1l0-5.6c0-2.2-1.8-4-4.1-4z" class="c"/></g></g><g transform="matrix(0.28178125 -0.00621639 0.00702045 0.24827971 -6.0122254 84.730906)"><path d="m239.4 374.4h1.1v-3.8l-1.2 0.2v-0.6l1.2-0.2h0.7v4.4h1.1v0.6h-2.9v-0.6"/><path d="m248.2 370.7v1.9h1.9v0.6H248.2v1.9h-0.6v-1.9h-1.9v-0.6h1.9V370.7H248.2"/><path d="m253.8 374.4h1.1v-3.8l-1.2 0.2v-0.6l1.2-0.2h0.7v4.4h1.1v0.6h-2.9v-0.6"/><path d="m260.2 371.9h4.3v0.6H260.2V371.9m0 1.4h4.3v0.6H260.2v-0.6"/><path d="m268.6 374.4h2.3v0.6h-3.2V374.4c0.3-0.3 0.6-0.6 1-1.1 0.4-0.4 0.7-0.7 0.8-0.9 0.2-0.2 0.4-0.4 0.4-0.6 0.1-0.2 0.1-0.3 0.1-0.5 0-0.3-0.1-0.5-0.3-0.6-0.2-0.2-0.4-0.2-0.7-0.2-0.2 0-0.4 0-0.7 0.1-0.2 0.1-0.5 0.2-0.7 0.3v-0.7c0.3-0.1 0.5-0.2 0.8-0.2 0.2-0.1 0.4-0.1 0.6-0.1 0.5 0 0.9 0.1 1.2 0.4 0.3 0.3 0.5 0.6 0.5 1 0 0.2 0 0.4-0.1 0.6-0.1 0.2-0.2 0.4-0.4 0.6-0.1 0.1-0.2 0.3-0.5 0.6-0.3 0.3-0.7 0.7-1.3 1.3"/></g><g transform="matrix(0.26458333 0 0 0.26458333 -6.0122254 84.730906)" style="fill:#fff;stroke-width:2;stroke:#000"><rect x="257.8" y="356.5" width="10.1" height="5.1" rx="2.5" ry="2.5"/><rect x="270.3" y="356.5" width="10.1" height="5.1" rx="2.5" ry="2.5"/><rect x="282.8" y="356.5" width="10.1" height="5.1" rx="2.5" ry="2.5"/><rect x="295.4" y="356.5" width="10.1" height="5.1" rx="2.5" ry="2.5"/><rect x="257.8" y="365.3" width="10.1" height="5.1" rx="2.5" ry="2.5"/><rect x="270.3" y="365.3" width="10.1" height="5.1" rx="2.5" ry="2.5"/><rect x="282.8" y="365.3" width="10.1" height="5.1" rx="2.5" ry="2.5"/><rect x="295.4" y="365.3" width="10.1" height="5.1" rx="2.5" ry="2.5"/><rect x="257.8" y="374.2" width="10.1" height="5.1" rx="2.5" ry="2.5"/><rect x="270.3" y="374.2" width="10.1" height="5.1" rx="2.5" ry="2.5"/><rect x="282.8" y="374.2" width="10.1" height="5.1" rx="2.5" ry="2.5"/><rect x="295.4" y="374.2" width="10.1" height="5.1" rx="2.5" ry="2.5"/><rect x="257.8" y="383" width="10.1" height="5.1" rx="2.5" ry="2.5"/><rect x="270.3" y="383" width="10.1" height="5.1" rx="2.5" ry="2.5"/><rect x="282.8" y="383" width="10.1" height="5.1" rx="2.5" ry="2.5"/><rect x="295.4" y="383" width="10.1" height="5.1" rx="2.5" ry="2.5"/><rect x="257.8" y="391.8" width="10.1" height="5.1" rx="2.5" ry="2.5"/><rect x="270.3" y="391.8" width="10.1" height="5.1" rx="2.5" ry="2.5"/><rect x="282.8" y="391.8" width="10.1" height="5.1" rx="2.5" ry="2.5"/><rect x="295.4" y="391.8" width="10.1" height="5.1" rx="2.5" ry="2.5"/></g><g transform="matrix(0.26458333 0 0 0.26458333 -6.0122254 84.730906)" class="d"><g transform="matrix(-0.49222 -0.14259 -0.066573 0.2298 -3.9226 311.43)" class="f"><path d="m-619.6-284v242.4h16.2v-242.4l-8.1-19.7-8.1 19.7z" fill="#fca"/><path d="M-619.6-280.6V-38.2h16.2v-242.4c-6 8.9-11.1 5.1-16.2 0z" fill="#ff0"/><path d="m-607.8-294.4-3.7-8.9-4.2 10.2c4.6 3.6 6 0.6 7.9-1.3z"/></g><g class="c"><path d="m313.1 367.7c4.9 19.2 0.6 36.6-12.8 52.3-24.4 7.2-44.2 3.5-59.3-11.3-8.8-22.2 2.9-36.9 12.8-52.3 17.8 8.4 36.9 13.8 59.3 11.3z" class="e"/><g stroke-width="6"><path d="M354.5 501.9A12.4 10.9 0 1 1 376.1 491.2 12.4 10.9 0 1 1 354.5 501.9Z"/><path d="M356.4 424.7A12.4 10.9 0 1 1 378 413.9 12.4 10.9 0 1 1 356.4 424.7Z"/></g></g><g class="f"><g class="c"><path d="m479.2 349.4c15.6 67.9 25.8 103.9 13.5 144.7-14.6-11.4-48.9-10-69.1-1.8 12-45.9 27.7-91.5 6.4-144.7"/></g><g class="b"><path d="m115.3 420.5c-8.4 0.2-15.9-5.6-16.3-20.4-0.1-2.5-4.4-10.7-4.1-13-2.6-0.7-17.7 0.4-20.4-0.6-15.2-6.2-24.8-16.6-21.3-23.3 1.9-3.6 7-5.4 13.7-5.3 5.9 0 25.6-0.5 32.8 2.4 5.8 2.3 15.2 11.2 18.9 14.3 0 0 0 0 0 0 5.9 3.6 10.3 13.4 10.6 24.9 0.1 3.9-0.3 7.7-1 11"/><path d="m67 396.9c16.8 0 30.3 6 30.3 13.4 0 7.4-13.6 13.4-30.3 13.4-16.8 0-31.8-6.1-30.3-13.4 3.1-16 13.6-13.4 30.3-13.4z"/><path d="m58.5 413.6c16.8 0 30.3 6 30.3 13.4 0 7.4-11.7 14-28.5 14-16.8 0-29.2-5.8-28.5-13.2 2-21.9 9.9-14.2 26.7-14.2z"/><path d="m57.6 430.5c16.8 0 30.3 6 30.3 13.4 0 7.4-13.6 13.4-30.3 13.4-16.8 0-27.8-6.2-27.4-12.7 1.7-28 10.6-14 27.4-14z"/></g></g><g class="e"><rect transform="matrix(-0.97727 -0.212 -0.212 0.97727 0 0)" x="-383.7" y="394.5" width="56.8" height="102.4" fill="#0f0"/><rect transform="matrix(-0.97625 -0.21663 -0.21663 0.97625 0 0)" x="-382.2" y="398.6" width="48.5" height="24.2" class="c"/></g></g><g transform="matrix(0.26034184 0.04718541 -0.04718541 0.26034184 -6.0122269 84.730902)"><path d="m320.5 423.8c0-0.1 0-0.3 0-0.8 0-0.3 0-0.6 0-0.8 0-0.3 0-0.5 0-0.7 0-0.1-0.1-0.2-0.1-0.4-0.1-0.2-0.1-0.3-0.1-0.4 0-0.2-0.1-0.6-0.2-1 0.7 0.4 1.4 1 2 1.9 0.2 0.2 0.5 0.6 0.9 1.2 0-0.6-0.1-1.3-0.2-1.9 0-0.2 0-0.4-0.1-0.6 0-0.2-0.1-0.4-0.2-0.5 0.2 0 0.5 0.2 0.8 0.5 0.2 0.3 0.4 0.6 0.5 0.9 0.2 0.6 0.2 1.4 0.2 2.3v0c0 0.3 0 0.6-0.1 1.1 0 0.5-0.1 0.8-0.1 1.1-0.3-0.2-0.5-0.4-0.8-0.8-0.2-0.3-0.3-0.6-0.5-0.9-0.1-0.2-0.3-0.5-0.6-0.8-0.2-0.3-0.4-0.5-0.6-0.8 0 0.1 0 0.2 0 0.4 0 0.2 0.1 0.3 0.1 0.4 0 0.1 0 0.3-0.1 0.6-0.1 0.3-0.1 0.5-0.1 0.6v0.7c0 0 0 0.1 0 0.3 0 0.1 0 0.2 0 0.2 0 0-0.1 0.1-0.1 0.1-0.1 0-0.1 0-0.2 0-0.2 0-0.5 0.1-0.8 0.1 0.2-0.3 0.3-0.5 0.4-0.8 0-0.2 0.1-0.5 0.1-1"/><path d="m328.3 423.6c0-0.4-0.2-0.7-0.5-0.9-0.3-0.2-0.7-0.3-1.1-0.3h0.1c-0.8 0-1.2 0.3-1.2 1 0 0.4 0.1 0.7 0.4 1 0.3 0.3 0.6 0.5 1 0.6 0 0 0 0 0 0 0.1-0.1 0.3-0.2 0.5-0.4 0.5-0.4 0.8-0.8 0.8-1.1m-1.2 2.1c-0.1-0.1-0.3-0.2-0.6-0.2-0.3-0.1-0.5-0.2-0.6-0.2-0.9-0.5-1.4-1.2-1.4-2 0-0.3 0-0.5 0.1-0.7 0.1-0.3 0.2-0.4 0.4-0.6 0.3-0.2 0.7-0.3 1.2-0.3 0.2 0 0.6 0 1.3 0 0.6 0 1.1 0.3 1.4 0.9 0.2 0.4 0.3 1 0.3 1.7 0 0.5-0.3 0.9-0.8 1.1-0.4 0.2-0.9 0.3-1.5 0.3l0.2 0"/><path d="m331.3 425.8c-0.1-0.1-0.3-0.2-0.4-0.4-0.1-0.2-0.1-0.4-0.2-0.6-0.1-0.3-0.2-0.4-0.2-0.5-0.1-0.2-0.1-0.3-0.1-0.5 0-0.2 0-0.4 0.1-0.6 0.1-0.4 0.1-0.5 0.1-0.5h-1c0.1-0.2 0.2-0.4 0.4-0.5 0.1 0 0.2 0 0.3 0 0.2 0 0.3 0 0.3 0 0.1 0 0.2-0.1 0.2-0.2 0 0 0-0.1 0-0.2 0-0.1 0-0.3 0-0.3 0-0.2 0-0.3 0.1-0.3 0.4 0 0.7 0 0.9 0 0 0.1 0 0.2 0 0.3 0 0.1 0 0.2 0 0.3 0 0.1 0 0.3 0 0.3 0 0.1 0 0.1 0 0.2 0.1 0 0.2-0.1 0.5-0.1h1.9c-0.7 0.4-1.3 0.6-1.9 0.6-0.4 0-0.7 0.1-0.7 0.4 0 0.1 0 0.2 0.1 0.3 0.1 0.1 0.1 0.2 0.1 0.3 0 0.2 0.1 0.3 0.1 0.6 0 0.3 0 0.5 0.1 0.6 0 0.1 0 0.2 0.1 0.3 0.1 0.1 0.1 0.3 0.1 0.4 0 0.2-0.3 0.3-0.8 0.3l0.2 0"/><path d="m337.6 422.8c0 0 0-0.1 0-0.1 0-0.1-0.1-0.1-0.1-0.1-0.1 0-0.1-0.1-0.3-0.1-0.1 0-0.2 0-0.3 0-0.1 0-0.2 0-0.3 0 0 0-0.1 0-0.4 0-0.2 0-0.3 0-0.4 0-0.1 0-0.2 0.1-0.4 0.2-0.2 0.2-0.3 0.2-0.4 0.3 0.3 0.1 0.5 0.1 0.8 0.2 0.3 0.1 0.6 0.1 0.8 0.1 0.2 0 0.4 0 0.6-0.1 0.2-0.1 0.4-0.2 0.4-0.4m0.5-0.7c0 0.1 0.1 0.3 0.2 0.6 0.1 0.2 0.1 0.4 0.1 0.6 0 0.3-0.2 0.5-0.6 0.6-0.2 0-0.5 0.1-1 0.1-0.2 0-0.4 0-0.8-0.1-0.3-0.1-0.6-0.1-0.8-0.1-0.3 0-0.4 0.1-0.4 0.3 0 0.4 0.2 0.6 0.6 0.8 0.3 0.2 0.7 0.2 1.1 0.2 0.2 0 0.5 0 0.7-0.1 0.3-0.1 0.6-0.2 0.7-0.3 0.1-0.1 0.1-0.2 0.2-0.3 0.1-0.2 0.2-0.3 0.2-0.3l0 0.5c-0.1 0.3-0.2 0.5-0.4 0.6-0.1 0.1-0.3 0.2-0.7 0.3-0.7 0.2-1.2 0.3-1.5 0.3-0.5 0-0.9-0.2-1.2-0.5-0.4-0.3-0.6-0.7-0.6-1.1 0-1 0-1.2 0-0.6 0-0.3 0-0.5 0.1-0.6 0.1-0.4 0.3-0.7 0.7-0.9 0.3-0.2 0.7-0.3 1.2-0.3 0.6 0 1.1 0.1 1.6 0.2 0.1 0 0.2 0.1 0.4 0.2 0.2 0.1 0.3 0.2 0.4 0.2l-0.2-0.2"/><path d="m343.1 422.7c0.5 0 0.9-0.1 1.2-0.2 0.4-0.1 0.6-0.4 0.6-0.6 0-0.4-0.2-0.7-0.6-0.9-0.4-0.3-0.8-0.4-1.3-0.4-0.1 0-0.1 0.1-0.2 0.2-0.1 0.1-0.1 0.2-0.1 0.2 0 0.2 0.1 0.4 0.3 0.8 0.2 0.3 0.3 0.6 0.3 0.7 0 0.2-0.1 0.3-0.3 0.4l0.2-0.2m-1.6 2.9c0-0.1 0.1-0.2 0.2-0.3 0.1-0.2 0.2-0.2 0.2-0.3 0.2-0.3 0.3-0.6 0.3-1 0-0.1 0-0.4 0-1.1 0-0.3 0-0.7-0.1-1 0-0.1-0.1-0.4-0.2-0.9 0-0.2-0.1-0.5-0.1-0.9v-0.5c0.5 0.1 1 0.2 1.5 0.3 0.6 0.1 1.1 0.2 1.4 0.4 1.3 0.5 2 1.1 2 1.9 0 0.4-0.2 0.8-0.7 0.9-0.3 0.1-0.8 0.2-1.5 0.2 0.4 0 0.9 0.1 1.2 0.3 0.4 0.2 0.5 0.5 0.5 0.8 0 0.3-0.2 0.5-0.5 0.6-0.2 0.1-0.6 0.1-1.1 0.2-0.4 0-0.7 0-1.1 0.1-0.6 0.1-1.4 0.2-2.2 0.4l0.1-0.1m3.5-1.2c0-0.1-0.1-0.2-0.2-0.3-0.1 0-0.2-0.1-0.3-0.1-0.1-0.1-0.3-0.2-0.4-0.3-0.1-0.1-0.3-0.1-0.5-0.1-0.2 0-0.3 0-0.4 0-0.1 0-0.1 0.1-0.1 0.1 0 0.1 0 0.2 0 0.3-0.1 0.6-0.4 1-0.8 1.2 0.1 0 0.3-0.1 0.6-0.2 0.2-0.1 0.4-0.2 0.7-0.2 0.3-0.1 0.7-0.1 1.2-0.2 0.2 0 0.3-0.1 0.3-0.2"/><path d="m350.8 423.6c0-0.4-0.2-0.7-0.5-0.9-0.3-0.2-0.7-0.3-1.1-0.3h0.1c-0.8 0-1.2 0.3-1.2 1 0 0.4 0.1 0.7 0.4 1 0.3 0.3 0.6 0.5 1 0.6 0 0 0 0 0 0 0.1-0.1 0.3-0.2 0.5-0.4 0.5-0.4 0.8-0.8 0.8-1.1m-1.2 2.1c-0.1-0.1-0.3-0.2-0.6-0.2-0.3-0.1-0.5-0.2-0.6-0.2-0.9-0.5-1.4-1.2-1.4-2 0-0.3 0-0.5 0.1-0.7 0.1-0.3 0.2-0.4 0.4-0.6 0.3-0.2 0.7-0.3 1.2-0.3 0.2 0 0.6 0 1.3 0 0.6 0 1.1 0.3 1.4 0.9 0.2 0.4 0.3 1 0.3 1.7 0 0.5-0.3 0.9-0.8 1.1-0.4 0.2-0.9 0.3-1.5 0.3l0.2 0"/><path d="m356.1 423.6c0-0.4-0.2-0.7-0.5-0.9-0.3-0.2-0.7-0.3-1.1-0.3h0.1c-0.8 0-1.2 0.3-1.2 1 0 0.4 0.1 0.7 0.4 1 0.3 0.3 0.6 0.5 1 0.6 0 0 0 0 0 0 0.1-0.1 0.3-0.2 0.5-0.4 0.5-0.4 0.8-0.8 0.8-1.1m-1.2 2.1c-0.1-0.1-0.3-0.2-0.6-0.2-0.3-0.1-0.5-0.2-0.6-0.2-0.9-0.5-1.4-1.2-1.4-2 0-0.3 0-0.5 0.1-0.7 0.1-0.3 0.2-0.4 0.4-0.6 0.3-0.2 0.7-0.3 1.2-0.3 0.2 0 0.6 0 1.3 0 0.6 0 1.1 0.3 1.4 0.9 0.2 0.4 0.3 1 0.3 1.7 0 0.5-0.3 0.9-0.8 1.1-0.4 0.2-0.9 0.3-1.5 0.3l0.2 0"/><path d="m357.7 425.7c0.2-0.3 0.3-0.8 0.4-1.5 0-0.4 0.1-0.8 0.1-1.2 0-0.5 0.1-0.9 0.1-1.2 0-0.3 0-0.7-0.1-1.2-0.1-0.6-0.1-1-0.2-1.1 0 0 0.2 0.1 0.5 0.2 0.2 0.1 0.3 0.2 0.3 0.3 0 0.2 0.1 0.7 0.1 1.4 0 0.4 0 1.2 0 2.4 0.4-0.1 0.8-0.2 1.3-0.4 0.4-0.2 0.8-0.5 1-0.8-0.4 0.7-0.9 1.4-1.5 2 0.3 0 0.5 0.1 0.7 0.3 0 0 0.2 0.2 0.5 0.6-0.9 0-1.5-0.2-1.8-0.6-0.1-0.1-0.2-0.3-0.4-0.5-0.2 0.5-0.6 0.9-1 1.1"/></g><path d="m68.7 221.5c1.8 5 1.2 9.7-1.9 14-6.2 2.2-11.5 1.5-15.9-2.2-2.9-5.8-0.3-9.8 1.9-14 4.9 2 10.1 3.2 15.9 2.2z" style="fill:#fff;stroke-width:0.6;stroke:#000"/><g transform="translate(1.7234651 24.648473)"><title>  Head_Up</title><g transform="translate(4.1993498e-8 0.52916805)matrix(0.26458333 0 0 0.26458333 -6.6628402 55.453242)" class="a"><path d="m390.4 77.3c57.5 0 102-49.3 102 1.4 0 50.7-46.6 91.7-104.1 91.7-57.5 0-104.1-41.1-104.1-91.7 0-50.7 48.7-1.4 106.2-1.4z" fill="#f60"/><path d="M375 162.9C329.8 159.5 322.6-1.2 388.4 1.8c44.6 1.7 53.9 76.9 38 119.4" class="b"/></g><path d="m93.8 68.1c5.3 0 9.6 1.4 9.6 3.2 0 0.3-0.2 0.6-0.4 0.9 0.3 0 0.7 0 1 0 6.1 0 11.1 1.7 11.1 3.7 0 2-5 3.7-11.1 3.7-6.1 0-11.1-1.7-11.1-3.7 0-0.5 0.3-1 0.9-1.4-1.4 0-2.6-0.1-3.8-0.3 0.4 0.5 0.7 1 0.7 1.6 0 2.2-3.6 4-8 4-4.4 0-8-1.8-8-4 0-2.2 3.6-4 8-4 0.6 0 1.2 0 1.8 0.1-0.1-0.2-0.2-0.4-0.2-0.6 0-1.8 4.3-3.2 9.6-3.2v0z" style="fill:#f60;stroke:#000"/><path d="m102 104.1c0.9 1.8 1.9 3.7 2.7 5.6 0.1 0.3 2.7 3.1 1.7 3.1-1.1 0-2.5 0.9-1.8 0.7 0.7-0.1 4.2 1.3 2.1 1.3-2 0-2.9 1.5-0.8 1.2 1.2-0.2 1.4 0.2 1.9 0 0.9-0.3-2.3 2-1.5 1.8 0.4-0.1 3.6 0.6 2 0.9-0.8 0.1-3 1.4-2.4 1.2 0.7-0.2 3.1 0.1 3.2 0.2 0.3 0.8-5.5 1.8-3 1.6 1.5-0.1 2.8 0.4 3.3 0.4 1.2-0.1-4.6 1.5-3.1 1.5-15.8-1.2-31-1-38.1-0.6 0.1-0.4 2.5-1.5 3-1.4 1.4 0.1-0.5-0.9-2.2-0.9-1.1 0-0.1-2.5-0.1-2.7 1.5-5.8 4.8-12.6 6-17.1 13.1 3.3 13.5 6.3 27.1 3.2z" class="g"/><g transform="translate(4.1993498e-8 0.52916805)matrix(0.26458333 0 0 0.26458333 -6.6628402 55.453242)" style="fill:none;stroke-width:2;stroke:#000"><path d="m396.5 183.9c21.6 28.7 13.5 42.1 13.3 42.4"/><path d="m382.3 185.5c17 43.8 4.7 43.8 4.6 43.8"/><path d="m366.6 188.6c14 30.5-0.3 43.5-0.9 44"/><path d="m322.7 187.5c-8.6 43.3-8.2 43.4-8.2 43.4"/></g><g transform="translate(4.1993498e-8 0.52916805)matrix(0.26458333 0 0 0.26458333 -6.6628402 55.453242)" style="fill:#ffe6d5;stroke:#000"><path d="M423.2 135.3A15.6 19.4 0 1 1 451.4 152 15.6 19.4 0 1 1 423.2 135.3Z" stroke-width="7"/><path d="m397.6 150.7c0.1-1.2 37.8-5.9 20.1 25.6-9.2 13.4-38.3 27.9-53.3 34.8-37.5 17.3-80-4.2-92.1-24.7-12.1-20.4 22.6-34 60.1-51.3 24.7-11.3 50.5-14.1 68.7-8.9" class="f"/></g><path d="m109.5 90.7c3.6-0.3 4.6 2.2 1.6 4.2" style="fill:none;stroke-width:0.4;stroke:#000"/><path d="m100.2 65.4c0-2.1-3-2.6-5.4-2.6-2.4 0-5.4 0.3-5.4 2.4" style="fill:#ffe6d5;stroke-width:0.5;stroke:#000"/><g transform="translate(4.1993498e-8 0.52916805)matrix(0.26458333 0 0 0.26458333 -6.6628402 55.453242)" style="fill:#fff;stroke:#000"><path d="m477.3 139.7-9.1 0.3c1.6-10.3-0.2-12.3-9.6-12.5h-32v-9.6h32.7c4.1 0.3 9.2-0.5 13.3 0.8 7.3 1.9 5.8 19.5 4.7 21z" class="f"/><path d="m373 88.5c0.3 0 0.7 0 1 0 6.4 0.1 12.2 3.6 15.3 8.4 6-3.5 13.2-5.5 21-5.3 19.6 0.6 35 15.1 34.3 32.4-0.7 17.3-17.1 30.8-36.7 30.2-19.6-0.6-34.9-15.1-34.3-32.3 0.3-7.2 3.3-13.8 8.2-18.9-4.1-6.9-11.6-7.6-16.2-1.1 4.8 5.5 7.6 12.5 7.3 20.1-0.7 17.3-17.1 30.8-36.7 30.2-19.6-0.6-35-15.1-34.3-32.3 0.7-17.3 17.1-30.8 36.7-30.2 7.3 0.2 14 2.4 19.5 5.9 3.4-4.1 8.9-6.9 14.9-6.9v0z" class="f"/></g><g transform="translate(4.1993498e-8 0.52916805)matrix(0.26458333 0 0 0.26458333 -6.6628402 55.453242)" style="fill:#f2f2f2;stroke-width:4;stroke:#000"><path d="m384.6 122.2a24.4 21.5 0 1 1 48.8 1.5 24.4 21.5 0 1 1-48.8-1.5z"/><path d="m312.9 120.1a24.4 21.5 0 1 1 48.8 1.5 24.4 21.5 0 1 1-48.8-1.5z"/></g></g><g transform="matrix(0.26458333 0 0 0.21539088 -6.0122254 100.87025)" style="stroke-width:7;stroke:#000"><path d="M307 261.1A59.6 32.4 0 1 1 425.1 252.7 59.6 32.4 0 1 1 307 261.1Z" class="b"/><g transform="matrix(-0.5153 -0.046812 -0.053129 0.45404 -39.253 93.495)" fill="#803300"><path d="m-829.7 349.9v54.3c18.7 17.1 30.2 9.1 41.4 0V349.9c-16.2-12.2-28.9-6.5-41.4 0z"/><path d="m-893.9 326.8c-16.6 34.9-9.6 66.5 0 97.7 24.9 2.1 48.4-7.2 65.7-24 4.5-14.3 3.1-31.6 0-49.7-29.7-20.9-47-25.1-65.7-24z"/><path d="m-723.3 328.2c16.6 34.9 9.6 66.5 0 97.7-24.9 2.1-48.4-7.2-65.7-24-4.5-14.3-3.1-31.6 0-49.7 29.7-20.9 47-25.1 65.7-24z"/></g></g><path d="m92.5 159.5c0 2.1-1.9 3.8-4.4 3.8-2.4 0-4.4-1.7-4.4-3.8" style="fill:#ffe6d5;stroke-width:0.9;stroke:#000"/><path d="m108 149c1.4 0 3.7 0.3 3.8 1.2 0.3 1.9 0.2 3.3-0.3 4.2-0.9-0.5-1.4 0-2.5-1.3-0.3 1.2-0.7 1.1-1.2 1.8-0.2-0.6-1.5-0.4-1.5-1.7-0.1 0.3-1.6 2.2-1.6 2.2 0 0-2-2.4-3-2.1 0.6 0.6 0.9 2 0.2 2.6-1.3-1.8-2.4-1.1-2.6-2.1-0.2 0.5-0.2 2-0.6 2.1-1.2 0.3-1.8-2.8-3-2.6 0.1 1.6 0 2.9-1 3-0.1-2-2-4.4-1.8-3.2 0.3 1.2-0.3 4.2-0.6 3.2-0.4-1.3-2.1-1.4-2.2-2.5-0.1-1.5-0.9 4-1.1 2.7-0.1-0.5-2.2-1-2.2-2.3 0-0.6-1.1 1.1-1.1 2 0.1 1.1-1.9-1.4-2-2-0.2-1.1-1.3 1.7-1.3 1.8 0.1 0.5-1.4-2.2-1.3-1.7 0 0.7-1.6 0.9-1.5 1.5 0.2 0.7-2.2-2.2-1.9-1.7 0.5 0.8-0.8 0.9-0.7 1.3 0.1 0.7-1.6-1.4-1.6-0.9 0 0.7-0.8-2.3-0.8-1.7-0.1 0.6-2 0.8-2.6 0.6-1.2-0.9-2-3.5-2.2-5.1-0.1-0.5 2.6-0.2 4.4-0.2 12.2-0.9 24.1 0.2 33.7 0.8z" class="g"><title>  down_beard</title></path></g></svg>